<?xml version="1.0" encoding="UTF-8"?>
<svg id="Layer_1" data-name="Layer 1" xmlns="http://www.w3.org/2000/svg" viewBox="0 0 723.35 97.36">
  <defs>
    <style>
      .cls-1 {
        fill: #080807;
      }

      .cls-1, .cls-2 {
        stroke-width: 0px;
      }

      .cls-2 {
        fill: #e7e7e8;
      }
    </style>
  </defs>
  <g>
    <path class="cls-2" d="m358.48,31.95c.95-.05,5.97-.05,6.96,0,9.17.49,112.87,21.3,131.82,24.13,10.17.3,71.15-.39,74.73,0,4.55.49,1.8,6.26,2.55,7.74-10.62,1.93-72.48,13.31-77.28,13.56-8.84.47-30.48-3.9-39.45-5.49-32.17-5.7-63.48-12.08-95.62-17.81q-59.65,11.07-119.29,22.13c-11.92,1.66-12.64,1.53-24.6-.17-14.36-2.03-49.39-9.14-66.84-11.82-2.75-.71-2.25-7.87,0-8.15h75.2c18.46-2.51,123.76-23.67,131.82-24.13Z"/>
    <path class="cls-1" d="m360.34,32.62c1.85-.06,4.21.02,6.03.17,7.27.59,114.39,21.58,132.29,24.63h73.34l.23,5.91c-9.6,1.87-70.83,13.01-74.96,13.23-1,.05-5.46.05-6.5,0-8.89-.44-110.76-20.42-129.04-23.3q-58.02,10.82-116.04,21.64c-9.83,1.31-11.58,2.46-22.28,1.16-8.4-1.02-58.39-10.37-71.25-12.73q.12-2.95.23-5.91h72.87c37.4-6.5,73.27-14.18,110.47-20.8,4.68-.83,20.89-3.87,24.6-3.99Z"/>
  </g>
  <g>
    <path class="cls-2" d="m55.38,54.44c.22-.01,1.41-.01,1.65,0,2.17.11,26.7,5.04,31.18,5.71,2.41.07,16.83-.09,17.67,0,1.08.12.43,1.48.6,1.83-2.51.46-17.14,3.15-18.28,3.21-2.09.11-7.21-.92-9.33-1.3-7.61-1.35-15.01-2.86-22.61-4.21l-28.21,5.24c-2.82.39-2.99.36-5.82-.04-3.4-.48-11.68-2.16-15.81-2.79-.65-.17-.53-1.86,0-1.93h17.78c4.37-.59,29.27-5.6,31.18-5.71Z"/>
    <path class="cls-1" d="m55.82,54.6c.44-.02,1,0,1.43.04,1.72.14,27.05,5.1,31.29,5.83h17.35l.05,1.4c-2.27.44-16.75,3.08-17.73,3.13-.24.01-1.29.01-1.54,0-2.1-.1-26.2-4.83-30.52-5.51l-27.45,5.12c-2.32.31-2.74.58-5.27.28-1.99-.24-13.81-2.45-16.85-3.01l.05-1.4h17.24c8.85-1.54,17.33-3.35,26.13-4.92,1.11-.2,4.94-.91,5.82-.94Z"/>
  </g>
  <g>
    <path class="cls-2" d="m666.32,53.17c.22-.01,1.41-.01,1.65,0,2.17.11,26.7,5.04,31.18,5.71,2.41.07,16.83-.09,17.67,0,1.08.12.43,1.48.6,1.83-2.51.46-17.14,3.15-18.28,3.21-2.09.11-7.21-.92-9.33-1.3-7.61-1.35-15.01-2.86-22.61-4.21q-14.11,2.62-28.21,5.24c-2.82.39-2.99.36-5.82-.04-3.4-.48-11.68-2.16-15.81-2.79-.65-.17-.53-1.86,0-1.93h17.78c4.37-.59,29.27-5.6,31.18-5.71Z"/>
    <path class="cls-1" d="m666.76,53.32c.44-.02,1,0,1.43.04,1.72.14,27.05,5.1,31.29,5.83h17.35l.05,1.4c-2.27.44-16.75,3.08-17.73,3.13-.24.01-1.29.01-1.54,0-2.1-.1-26.2-4.83-30.52-5.51q-13.72,2.56-27.45,5.12c-2.32.31-2.74.58-5.27.28-1.99-.24-13.81-2.45-16.85-3.01l.05-1.4h17.24c8.85-1.54,17.33-3.35,26.13-4.92,1.11-.2,4.94-.91,5.82-.94Z"/>
  </g>
</svg>